<svg id="Layer_1" data-name="Layer 1" xmlns="http://www.w3.org/2000/svg" viewBox="0 0 491.67 491.02"><defs><style>.cls-1{fill:#fff;}</style></defs><title>logo-solid</title><path class="cls-1" d="M489,208.59q-1.86-12.26-4.88-24.08a242.57,242.57,0,0,0-9.25-28.78q-3.28-8.4-7.15-16.47-1.29-2.7-2.64-5.35a245.24,245.24,0,0,0-32.93-49q-5.79-6.69-12-13C375.73,27.44,314.18,0,245.65,0c-2.33,0-4.64,0-7,.1l-1.21,0q-3,.09-6,.26l-.57,0C101.51,8,.16,114.71.16,246.19c0,130.7,99.21,234.75,226.66,244.14l.87.05c1.78.13,3.56.24,5.35.33l2.28.09c1.33.05,2.66.11,4,.14,1.83.05,3.68.06,5.52.07h.81C369.87,491,471.13,402.52,489,283.9q.92-6.13,1.55-12.37t.94-12.58q.32-6.33.32-12.76A251.72,251.72,0,0,0,489,208.59ZM240.7,460.94l-1.41,0c-1.32,0-2.64-.09-3.95-.15l-1.09,0c-1.57-.09-3.14-.19-4.7-.3l-1.56-.12-3.31-.29-1.76-.17c-1.45-.15-2.89-.32-4.33-.49l-2-.26-2.6-.36-2.4-.36-2.06-.34c-1.65-.28-3.29-.57-4.93-.88l-1.18-.23c-1-.2-2.1-.42-3.15-.64l-.84-.18a215.13,215.13,0,0,1-67.6-27.24c-19.38-15.76-38.06-42.7-38.06-66.05,0-23.77,8-42.16,22.93-57.43A142.66,142.66,0,0,0,246,388c78.56,0,142.47-63.92,142.47-142.48a142.08,142.08,0,0,0-43.29-102.18,126.13,126.13,0,0,0,0-19c-2.86-41-20.68-67.09-48.77-88.32a216.73,216.73,0,0,1,138,104.77l.17.3c.67,1.21,1.33,2.42,2,3.64l.21.39q4,7.49,7.36,15.33c.1.22.2.44.29.67.45,1,.87,2.06,1.3,3.1l.58,1.42c.38,1,.76,1.92,1.13,2.88.22.56.43,1.13.65,1.7.34.92.69,1.85,1,2.77.22.62.44,1.24.65,1.86.32.91.64,1.81.94,2.72.22.66.43,1.33.65,2,.45,1.37.88,2.76,1.3,4.14.29,1,.58,1.93.86,2.89.21.76.41,1.52.62,2.28s.47,1.69.69,2.54.39,1.53.58,2.29.43,1.72.63,2.59.35,1.51.52,2.27.4,1.79.59,2.69c.16.74.31,1.47.46,2.2.19,1,.38,2,.56,2.93.12.67.25,1.33.37,2,.22,1.28.43,2.56.64,3.84,0,.38.12.75.18,1.13q.38,2.46.69,5c.08.56.14,1.13.21,1.7.13,1.12.26,2.25.38,3.38.07.66.13,1.32.2,2,.1,1.06.19,2.11.28,3.17l.15,2c.08,1.07.15,2.14.21,3.2,0,.67.07,1.33.1,2,.06,1.16.1,2.33.14,3.49,0,.57,0,1.13.05,1.7,0,1.72.07,3.45.07,5.17v0C461.82,365.51,365,461,245.65,461h0C244,461,242.33,461,240.7,460.94ZM112.18,245.51c0-73.79,60-133.82,133.82-133.82a133.08,133.08,0,0,1,75.67,23.51c-3,51-44.48,74.06-107.68,94.73-40.14,13.76-73.68,27.66-98.4,45.69A134,134,0,0,1,112.18,245.51Zm107.64,6.84c64.3-22.73,114-45.6,123.91-98.15a133.32,133.32,0,0,1,36.09,91.31c0,73.79-60,133.82-133.82,133.82a134,134,0,0,1-122.6-80.21C145.12,280.46,178.07,266.49,219.82,252.35ZM245.65,30c5.34,0,10.64.21,15.88.59a142.1,142.1,0,0,1,55.34,72.05c.29.81.57,1.62.83,2.43.06.15,1.38,4.4,1.87,6.35a77,77,0,0,1,2.14,13.49A141.57,141.57,0,0,0,246,103C167.44,103,103.53,167,103.53,245.51a141.91,141.91,0,0,0,4.59,35.92C82.7,302.49,68.47,329.19,68.47,367c0,.67.08,1.32.1,2v.06A213.79,213.79,0,0,1,30.13,246.19C30.13,126.81,126.33,30,245.65,30Z" transform="translate(-0.16 0)"/></svg>